# xmcd CD database file
#
# Track frame offsets:
#	150
#	31073
#	58105
#	86152
#	129265
#
# Disc length: 2173 seconds
#
# Revision: 0
# Processed by: cddbd v1.5.2PL0 Copyright (c) Steve Scherf et al.
# Submitted via: CDex 1.70beta2
#
DISCID=38087b05
DTITLE=Andre Hayward - Soulful Trombone Dounds
DYEAR=2014
DGENRE=Jazz
TTITLE0=Serene Intentions
TTITLE1=You Don't Know What Love Is
TTITLE2=Stardust
TTITLE3=Peace Offering
TTITLE4=DRE's Blues
EXTD=YEAR: 2014
EXTT0=
EXTT1=
EXTT2=
EXTT3=
EXTT4=
PLAYORDER=
